<svg width="100" height="98" viewBox="0 0 100 98" fill="none" xmlns="http://www.w3.org/2000/svg">
<g clip-path="url(#clip0_35_14)">
<path d="M50.0006 2.58497e-05C38.1188 -0.0120506 26.6209 4.20762 17.5676 11.9028C8.51432 19.5981 2.49731 30.2658 0.594876 41.9944C-1.30756 53.723 1.02895 65.7457 7.18568 75.9081C13.3424 86.0705 22.9169 93.7082 34.1934 97.4525C36.7103 97.9129 37.6004 96.3475 37.6004 95.0277C37.6004 93.7078 37.6004 90.6999 37.6004 86.5255C23.6348 89.5642 20.6882 79.8036 20.6882 79.8036C19.7617 76.7785 17.7934 74.1795 15.1326 72.4678C10.6207 69.3984 15.5009 69.3984 15.5009 69.3984C17.0826 69.6219 18.5926 70.2022 19.9168 71.0956C21.2409 71.989 22.3444 73.172 23.1437 74.555C23.8228 75.7864 24.7384 76.8716 25.838 77.7483C26.9375 78.625 28.1994 79.276 29.5511 79.6638C30.9028 80.0516 32.3179 80.1687 33.715 80.0084C35.1121 79.848 36.4638 79.4134 37.6925 78.7293C37.8851 76.2043 38.9737 73.8312 40.7618 72.0381C29.6507 70.7797 17.9871 66.4826 17.9871 47.4832C17.9108 42.5199 19.7461 37.7174 23.113 34.07C21.6135 29.7546 21.7887 25.0334 23.6041 20.841C23.6041 20.841 27.8091 19.4905 37.3548 25.9669C45.5519 23.7163 54.2039 23.7163 62.4009 25.9669C71.9466 19.4905 76.121 20.841 76.121 20.841C77.9616 24.9891 78.1806 29.6763 76.7348 33.9779C80.1017 37.6254 81.937 42.4279 81.8607 47.3911C81.8607 66.6053 70.1664 70.8104 59.0246 71.946C60.2193 73.147 61.1418 74.5908 61.7297 76.1795C62.3175 77.7682 62.5569 79.4648 62.4316 81.1541C62.4316 87.8454 62.4316 93.2474 62.4316 94.8742C62.4316 96.501 63.3217 97.7594 65.8693 97.2683C77.0174 93.4252 86.4485 85.7657 92.4965 75.643C98.5445 65.5202 100.82 53.5856 98.9215 41.9475C97.0228 30.3095 91.072 19.7169 82.1203 12.0412C73.1686 4.36555 61.7921 0.100668 50.0006 2.58497e-05Z" fill="#00CBA6"/>
</g>
<defs>
<clipPath id="clip0_35_14">
<rect width="100" height="97.5138" fill="white"/>
</clipPath>
</defs>
</svg>
