<svg width="100" height="103" viewBox="0 0 100 103" fill="none" xmlns="http://www.w3.org/2000/svg">
<path d="M99.9472 52.1239C99.9472 47.9314 99.607 44.8719 98.8707 41.6992H50.996V60.6223H79.0974C78.531 65.3249 75.4716 72.407 68.6727 77.1659L68.5774 77.7994L83.7145 89.5259L84.7632 89.6306C94.3946 80.7354 99.9472 67.6477 99.9472 52.1239Z" fill="#00CBA6"/>
<path d="M50.996 101.982C64.7633 101.982 76.3211 97.4489 84.7632 89.6306L68.6727 77.1658C64.3669 80.1686 58.5878 82.2649 50.996 82.2649C37.5118 82.2649 26.0673 73.3701 21.9876 61.0757L21.3897 61.1265L5.64987 73.3076L5.44403 73.8798C13.8291 90.5367 31.0527 101.982 50.996 101.982Z" fill="#00CBA6"/>
<path d="M21.9876 61.0756C20.9112 57.9029 20.2882 54.5033 20.2882 50.9907C20.2882 47.4778 20.9112 44.0786 21.931 40.9058L21.9025 40.2301L5.96545 27.8533L5.44402 28.1013C1.98813 35.0135 0.00512695 42.7756 0.00512695 50.9907C0.00512695 59.2059 1.98813 66.9676 5.44402 73.8798L21.9876 61.0756Z" fill="#00CBA6"/>
<path d="M50.996 19.7163C60.5708 19.7163 67.0295 23.8522 70.7123 27.3085L85.103 13.2576C76.2648 5.04245 64.7633 0 50.996 0C31.0527 0 13.8291 11.4445 5.44403 28.1014L21.931 40.9059C26.0673 28.6115 37.5118 19.7163 50.996 19.7163Z" fill="#00CBA6"/>
</svg>
